<?xml version="1.0" encoding="utf-8"?>
<svg id="master-artboard" viewBox="0 0 1400 980" version="1.1" xmlns="http://www.w3.org/2000/svg" x="0px" y="0px" style="enable-background:new 0 0 1400 980;" width="1400px" height="980px">

<radialGradient id="SVGID_1_" cx="700" cy="491.331" r="830.9838" gradientTransform="matrix(1 0 0 0.7218 0 136.7001)" gradientUnits="userSpaceOnUse">
		<stop offset="0" style="stop-color:#FFFFFF"/>
		<stop offset="0.4623" style="stop-color:#FCFCFC"/>
		<stop offset="0.6644" style="stop-color:#F4F4F5"/>
		<stop offset="0.8157" style="stop-color:#EAEAEB"/>
		<stop offset="0.941" style="stop-color:#DBDCDD"/>
		<stop offset="1" style="stop-color:#D1D3D4"/>
	</radialGradient><path d="M314.7,287.2c-13.9-9.3-75-10.8-75-10.8c-36.4-0.7-67,8.1-77.8,16.2c-10.8,8.1-36.4,87-24.3,111.2&#10;&#9;&#9;&#9;c12.1,24.3,57.3,16.2,57.3,16.2s41.8,36.3,91,1.3c0,0,43.2,6.1,56-27.6C354.8,360,327.8,296,314.7,287.2z M287.3,399.2&#10;&#9;&#9;&#9;c-33,22.9-80.9,18.2-102.5-8.1c-21.6-26.3-17.5-44.5-17.5-44.5s27-21.6,29-53.9c0,0,31.7,30.3,64.7,35.7c33,5.4,53.3,0,53.3,0&#10;&#9;&#9;&#9;S320.4,376.2,287.3,399.2z" transform="matrix(1.0545519590377808, 0, 0, 1.0545519590377808, 550.4714623773511, 177.14476388620233)"/><path d="M 281.899988 349.899994 A 10.1 10.1 0 0 1 271.799988 359.999994 A 10.1 10.1 0 0 1 261.699987 349.899994 A 10.1 10.1 0 0 1 271.799988 339.799994 A 10.1 10.1 0 0 1 281.899988 349.899994 Z" transform="matrix(1, 0, 0, 1, 563.5564233148525, 200.95810311960122)"/><path d="M 223.299997 349.899994 A 10.1 10.1 0 0 1 213.199997 359.999994 A 10.1 10.1 0 0 1 203.099997 349.899994 A 10.1 10.1 0 0 1 213.199997 339.799994 A 10.1 10.1 0 0 1 223.299997 349.899994 Z" transform="matrix(1.0545519590377808, 0, 0, 1.0545519590377808, 550.4714623773511, 177.14476388620233)"/><path class="st1" d="M134.3,211.2l33.2,61.2c0,0,75.3-24.8,144.8-1.2l33-61.8C345.3,209.5,250.2,104.4,134.3,211.2z M273.5,220.7&#10;&#9;&#9;&#9;l-23.6,0.2l0.2,23.6l-18.1,0.2l-0.2-23.6l-23.6,0.2l-0.2-18.1l23.6-0.2l-0.2-23.6l18.1-0.2l0.2,23.6l23.6-0.2L273.5,220.7z" style="fill: rgb(237, 28, 36);" transform="matrix(1, 0, 0, 1, 559.1877709711025, 209.695407807101)"/>

</svg>